<?xml version="1.0" encoding="UTF-8"?>
<svg id="Layer_1" xmlns="http://www.w3.org/2000/svg" version="1.1" viewBox="0 0 262.6 380.8">
  <!-- Generator: Adobe Illustrator 29.8.3, SVG Export Plug-In . SVG Version: 2.1.1 Build 3)  -->
  <defs>
    <style>
      .st0 {
        fill: #ff0;
      }
    </style>
  </defs>
  <path class="st0" d="M87.1,109.5H8.5L41.5,9.7c1.9-5.7,4.8-8.4,10.4-8.4h71l-35.8,108.1Z"/>
  <path class="st0" d="M134.8,1.3h92.7c5.7,0,10.7,3.4,10.5,10.2v52.2c0,5.9-4.5,10-10.3,10h-116.9L134.8,1.3Z"/>
  <path class="st0" d="M8.4,120.7l29.3,59.9c2.5,5.7,7.2,12,17.1,12h76.7c79.8,0,118.5,74.9,112.8,120.4,0,0,17-26.4,17-64.7,0-69.6-59.9-127.7-127.7-127.7H8.4Z"/>
  <path class="st0" d="M137.5,379.5v-80.3c27.1-3.8,43.6-25,43.6-49.5s-10.3-33.3-25.2-42.4c37.6,7.7,76.5,45.8,76.5,90.9s-26.3,76.8-94.9,81.2h0Z"/>
  <path class="st0" d="M124.9,299.2v80.3C45.6,374.6,1.3,309.8,1.3,251.1s4.1-11.2,10.1-11.2h59.7c5.8,0,9.5,4.4,9.7,10.1.4,22.2,14.3,43.7,44,49.3h0Z"/>
</svg>